<svg width="197" height="224" viewBox="0 0 197 224" fill="none" xmlns="http://www.w3.org/2000/svg">
<rect x="18" width="162" height="162" rx="25" fill="#2A2F3E"/>
<path d="M34.14 101.12H37.47C41.01 101.12 43.59 98.93 45.21 94.55L64.56 39.92H66.81L86.34 97.16C86.94 98.66 87.66 99.71 88.5 100.31C89.34 100.85 90.42 101.12 91.74 101.12H96.78V104H68.88V101.12H74.82C75.72 101.12 76.47 100.91 77.07 100.49C77.67 100.01 77.97 99.47 77.97 98.87C77.97 98.09 77.85 97.43 77.61 96.89L73.38 84.92H52.32L50.16 90.95C49.32 93.35 48.9 95.09 48.9 96.17C48.9 97.49 49.23 98.66 49.89 99.68C50.55 100.64 51.69 101.12 53.31 101.12H58.8V104H34.14V101.12ZM53.31 82.04H72.39L63.03 54.59L53.31 82.04ZM117.18 49.73H116.82V93.92C116.82 96.14 117.33 97.91 118.35 99.23C119.43 100.49 120.81 101.12 122.49 101.12H125.73V104H104.31V101.12H107.55C109.29 101.12 110.67 100.49 111.69 99.23C112.71 97.91 113.22 96.14 113.22 93.92V45.23C113.16 44.39 112.95 43.79 112.59 43.43C112.23 43.01 111.63 42.8 110.79 42.8H104.31V39.92H121.32L152.55 90.14V50C152.55 47.78 152.04 46.04 151.02 44.78C150 43.46 148.65 42.8 146.97 42.8H143.73V39.92H165.15V42.8H161.91C160.23 42.8 158.85 43.46 157.77 44.78C156.69 46.04 156.15 47.78 156.15 50V105.62H152.55L117.18 49.73Z" fill="white"/>
<path d="M2.3 204.4H4.15C6.11667 204.4 7.55 203.183 8.45 200.75L19.2 170.4H20.45L31.3 202.2C31.6333 203.033 32.0333 203.617 32.5 203.95C32.9667 204.25 33.5667 204.4 34.3 204.4H37.1V206H21.6V204.4H24.9C25.4 204.4 25.8167 204.283 26.15 204.05C26.4833 203.783 26.65 203.483 26.65 203.15C26.65 202.717 26.5833 202.35 26.45 202.05L24.1 195.4H12.4L11.2 198.75C10.7333 200.083 10.5 201.05 10.5 201.65C10.5 202.383 10.6833 203.033 11.05 203.6C11.4167 204.133 12.05 204.4 12.95 204.4H16V206H2.3V204.4ZM12.95 193.8H23.55L18.35 178.55L12.95 193.8ZM40.0836 204.8H42.1836C42.5836 204.8 42.8669 204.717 43.0336 204.55C43.2003 204.383 43.2836 204.1 43.2836 203.7V185.5C43.2836 185.1 43.2003 184.817 43.0336 184.65C42.8669 184.483 42.5836 184.4 42.1836 184.4H40.0836V183.2H46.8836V187.3L47.0836 187.35C47.8503 185.75 48.8003 184.567 49.9336 183.8C51.0669 183 52.3169 182.6 53.6836 182.6C56.1169 182.6 57.8336 183.35 58.8336 184.85C59.8669 186.35 60.3836 188.15 60.3836 190.25V203.7C60.3836 204.1 60.4669 204.383 60.6336 204.55C60.8003 204.717 61.0836 204.8 61.4836 204.8H63.5836V206H53.5836V204.8H55.6836C56.0836 204.8 56.3669 204.717 56.5336 204.55C56.7003 204.383 56.7836 204.1 56.7836 203.7V189.3C56.7836 187.833 56.4836 186.583 55.8836 185.55C55.3169 184.517 54.3336 184 52.9336 184C51.7669 184 50.7169 184.417 49.7836 185.25C48.8836 186.05 48.1669 187.167 47.6336 188.6C47.1336 190 46.8836 191.567 46.8836 193.3V203.7C46.8836 204.1 46.9669 204.383 47.1336 204.55C47.3003 204.717 47.5836 204.8 47.9836 204.8H50.0836V206H40.0836V204.8ZM76.3855 206.6C74.8189 206.6 73.3522 206.083 71.9855 205.05C70.6522 203.983 69.5855 202.533 68.7855 200.7C67.9855 198.867 67.5855 196.833 67.5855 194.6C67.5855 192.367 67.9855 190.333 68.7855 188.5C69.5855 186.667 70.6522 185.233 71.9855 184.2C73.3522 183.133 74.8189 182.6 76.3855 182.6C77.6855 182.6 78.8522 183.033 79.8855 183.9C80.9189 184.733 81.6855 185.75 82.1855 186.95L82.3855 186.9V172.7C82.3855 172.3 82.3022 172.017 82.1355 171.85C81.9689 171.683 81.6855 171.6 81.2855 171.6H77.6855V170.4H85.9855V203.7C85.9855 204.1 86.0689 204.383 86.2355 204.55C86.4022 204.717 86.6855 204.8 87.0855 204.8H89.6855V206H82.3855V202.3L82.1855 202.25C81.5522 203.583 80.7355 204.65 79.7355 205.45C78.7689 206.217 77.6522 206.6 76.3855 206.6ZM76.9355 205.2C77.9355 205.2 78.8522 204.833 79.6855 204.1C80.5189 203.367 81.1689 202.367 81.6355 201.1C82.1355 199.8 82.3855 198.4 82.3855 196.9V192.3C82.3855 190.8 82.1355 189.417 81.6355 188.15C81.1689 186.85 80.5189 185.833 79.6855 185.1C78.8522 184.367 77.9355 184 76.9355 184C75.3022 184 74.0689 184.917 73.2355 186.75C72.4022 188.583 71.9855 191.2 71.9855 194.6C71.9855 198 72.4022 200.617 73.2355 202.45C74.0689 204.283 75.3022 205.2 76.9355 205.2ZM93.2086 204.8H95.3086C95.7086 204.8 95.9919 204.717 96.1586 204.55C96.3253 204.383 96.4086 204.1 96.4086 203.7V185.5C96.4086 185.1 96.3253 184.817 96.1586 184.65C95.9919 184.483 95.7086 184.4 95.3086 184.4H93.2086V183.2H100.009V187.3L100.209 187.35C100.975 185.75 101.925 184.567 103.059 183.8C104.192 183 105.442 182.6 106.809 182.6C109.242 182.6 110.959 183.35 111.959 184.85C112.992 186.35 113.509 188.15 113.509 190.25V203.7C113.509 204.1 113.592 204.383 113.759 204.55C113.925 204.717 114.209 204.8 114.609 204.8H116.709V206H106.709V204.8H108.809C109.209 204.8 109.492 204.717 109.659 204.55C109.825 204.383 109.909 204.1 109.909 203.7V189.3C109.909 187.833 109.609 186.583 109.009 185.55C108.442 184.517 107.459 184 106.059 184C104.892 184 103.842 184.417 102.909 185.25C102.009 186.05 101.292 187.167 100.759 188.6C100.259 190 100.009 191.567 100.009 193.3V203.7C100.009 204.1 100.092 204.383 100.259 204.55C100.425 204.717 100.709 204.8 101.109 204.8H103.209V206H93.2086V204.8ZM124.911 177C124.177 177 123.561 176.75 123.061 176.25C122.561 175.75 122.311 175.133 122.311 174.4C122.311 173.633 122.561 173.017 123.061 172.55C123.561 172.05 124.177 171.8 124.911 171.8C125.677 171.8 126.294 172.05 126.761 172.55C127.261 173.017 127.511 173.633 127.511 174.4C127.511 175.133 127.261 175.75 126.761 176.25C126.294 176.75 125.677 177 124.911 177ZM120.211 204.8H122.311C122.711 204.8 122.994 204.717 123.161 204.55C123.327 204.383 123.411 204.1 123.411 203.7V185.5C123.411 185.1 123.327 184.817 123.161 184.65C122.994 184.483 122.711 184.4 122.311 184.4H120.211V183.2H127.011V203.7C127.011 204.1 127.094 204.383 127.261 204.55C127.427 204.717 127.711 204.8 128.111 204.8H130.211V206H120.211V204.8ZM133.187 204.8H135.787C136.187 204.8 136.47 204.717 136.637 204.55C136.804 204.383 136.887 204.1 136.887 203.7V172.7C136.887 172.3 136.804 172.017 136.637 171.85C136.47 171.683 136.187 171.6 135.787 171.6H133.187V170.4H140.487V195.85L147.287 187.55C147.654 187.15 147.887 186.833 147.987 186.6C148.12 186.367 148.187 186.067 148.187 185.7C148.187 185.267 148.02 184.95 147.687 184.75C147.387 184.517 146.987 184.4 146.487 184.4H145.187V183.2H155.387V184.4H153.787C152.887 184.4 152.087 184.633 151.387 185.1C150.687 185.567 149.887 186.35 148.987 187.45L145.187 192.1L152.987 203.2C153.387 203.767 153.737 204.183 154.037 204.45C154.337 204.683 154.754 204.8 155.287 204.8H156.287V206H145.687V204.8H146.987C147.42 204.8 147.754 204.733 147.987 204.6C148.22 204.433 148.337 204.167 148.337 203.8C148.337 203.433 148.287 203.133 148.187 202.9C148.087 202.667 147.92 202.367 147.687 202L142.787 195L140.487 197.8V203.7C140.487 204.1 140.57 204.383 140.737 204.55C140.904 204.717 141.187 204.8 141.587 204.8H143.187V206H133.187V204.8ZM170.164 206.6C168.33 206.6 166.647 206.067 165.114 205C163.58 203.9 162.364 202.433 161.464 200.6C160.597 198.767 160.164 196.767 160.164 194.6C160.164 192.433 160.597 190.433 161.464 188.6C162.364 186.767 163.58 185.317 165.114 184.25C166.647 183.15 168.33 182.6 170.164 182.6C171.997 182.6 173.68 183.15 175.214 184.25C176.747 185.317 177.947 186.767 178.814 188.6C179.714 190.433 180.164 192.433 180.164 194.6C180.164 196.767 179.714 198.767 178.814 200.6C177.947 202.433 176.747 203.9 175.214 205C173.68 206.067 171.997 206.6 170.164 206.6ZM170.164 205.4C172.164 205.4 173.597 204.467 174.464 202.6C175.33 200.7 175.764 198.033 175.764 194.6C175.764 191.167 175.33 188.517 174.464 186.65C173.597 184.75 172.164 183.8 170.164 183.8C168.164 183.8 166.73 184.75 165.864 186.65C164.997 188.517 164.564 191.167 164.564 194.6C164.564 198.033 164.997 200.7 165.864 202.6C166.73 204.467 168.164 205.4 170.164 205.4ZM183.968 204.8H186.568C186.968 204.8 187.252 204.717 187.418 204.55C187.585 204.383 187.668 204.1 187.668 203.7V172.7C187.668 172.3 187.585 172.017 187.418 171.85C187.252 171.683 186.968 171.6 186.568 171.6H183.968V170.4H191.268V203.7C191.268 204.1 191.352 204.383 191.518 204.55C191.685 204.717 191.968 204.8 192.368 204.8H194.968V206H183.968V204.8Z" fill="white"/>
</svg>
